<svg version="1" xmlns="http://www.w3.org/2000/svg" xmlns:xlink="http://www.w3.org/1999/xlink" width="100%" height="100%" viewBox="0 0 150 150" style="margin: auto"> <rect  x="0" y="0" width="100%" height="100%" fill="#ffffff" class="background"></rect> <g  fill="#ff0844" class="basesvg" transform="matrix(1,0,0,1,5.8,55)"><g class="tp-name" transform="translate()"><g transform="scale(1.5)"><g><g><path d="M 1.8 -0.2 L 11.6 -0.2 Q 11.6 -13.5 11.4 -17 L 11.4 -17 Q 11.9 -15.4 15.9 -5.5 L 15.9 -5.5 L 22.6 -5.5 Q 24.3 -10.1 25.2 -12.6 L 25.2 -12.6 Q 26.8 -16.9 26.9 -17 L 26.9 -17 Q 26.7 -11.1 26.7 -0.2 L 26.7 -0.2 L 36.5 -0.2 L 36.5 -26.1 L 22.5 -26.1 Q 20.4 -20 19.3 -14.3 L 19.3 -14.3 Q 19 -15.5 18.1 -18.8 Q 17.2 -22 15.8 -26.1 L 15.8 -26.1 L 1.8 -26.1 L 1.8 -0.2 Z M 40 -26.4 L 40 0.1 L 54.3 0.1 Q 60.9 0.1 63.8 -0.8 L 63.8 -0.8 Q 66.6 -1.4 68.2 -3.3 L 68.2 -3.3 Q 69.8 -5 69.8 -7.6 L 69.8 -7.6 Q 69.8 -13.1 62.6 -13.8 L 62.6 -13.8 Q 68 -15.3 68 -20 L 68 -20 Q 68 -22.9 65.5 -24.4 L 65.5 -24.4 Q 63.2 -26 58.9 -26.3 L 58.9 -26.3 L 57 -26.3 Q 54.7 -26.4 53.7 -26.4 L 53.7 -26.4 L 40 -26.4 Z M 53.9 -16.4 L 50.9 -16.4 L 50.9 -19.9 L 53.9 -19.9 Q 55.3 -19.9 55.8 -19.9 L 55.8 -19.9 Q 57.6 -19.6 57.6 -18.2 L 57.6 -18.2 Q 57.6 -17.1 56.4 -16.6 L 56.4 -16.6 Q 55.9 -16.4 53.9 -16.4 L 53.9 -16.4 Z M 54.5 -6.5 L 50.9 -6.5 L 50.9 -10.3 L 54.8 -10.3 Q 56 -10.3 57.2 -10.1 L 57.2 -10.1 Q 58.7 -9.8 58.7 -8.5 L 58.7 -8.5 Q 58.7 -7 57 -6.7 L 57 -6.7 Q 56.7 -6.5 56 -6.5 Q 55.3 -6.5 54.5 -6.5 L 54.5 -6.5 Z M 73.3 -0.2 L 84.1 -0.2 L 84.1 -9.6 L 94.5 -9.6 L 94.5 -15.8 L 84.1 -15.8 L 84.1 -19.5 L 95.9 -19.5 L 95.9 -26.1 L 73.3 -26.1 L 73.3 -0.2 Z" transform="translate(-1.8,26.4)"></path></g><g stroke="#333333" stroke-linecap="round" stroke-linejoin="round"  fill-opacity="0" transform="translate(-1.5,-1.5)"><path d="M 1.8 -0.2 L 11.6 -0.2 Q 11.6 -13.5 11.4 -17 L 11.4 -17 Q 11.9 -15.4 15.9 -5.5 L 15.9 -5.5 L 22.6 -5.5 Q 24.3 -10.1 25.2 -12.6 L 25.2 -12.6 Q 26.8 -16.9 26.9 -17 L 26.9 -17 Q 26.7 -11.1 26.7 -0.2 L 26.7 -0.2 L 36.5 -0.2 L 36.5 -26.1 L 22.5 -26.1 Q 20.4 -20 19.3 -14.3 L 19.3 -14.3 Q 19 -15.5 18.1 -18.8 Q 17.2 -22 15.8 -26.1 L 15.8 -26.1 L 1.8 -26.1 L 1.8 -0.2 Z M 40 -26.4 L 40 0.1 L 54.3 0.1 Q 60.9 0.1 63.8 -0.8 L 63.8 -0.8 Q 66.6 -1.4 68.2 -3.3 L 68.2 -3.3 Q 69.8 -5 69.8 -7.6 L 69.8 -7.6 Q 69.8 -13.1 62.6 -13.8 L 62.6 -13.8 Q 68 -15.3 68 -20 L 68 -20 Q 68 -22.9 65.5 -24.4 L 65.5 -24.4 Q 63.2 -26 58.9 -26.3 L 58.9 -26.3 L 57 -26.3 Q 54.7 -26.4 53.7 -26.4 L 53.7 -26.4 L 40 -26.4 Z M 53.9 -16.4 L 50.9 -16.4 L 50.9 -19.9 L 53.9 -19.9 Q 55.3 -19.9 55.8 -19.9 L 55.8 -19.9 Q 57.6 -19.6 57.6 -18.2 L 57.6 -18.2 Q 57.6 -17.1 56.4 -16.6 L 56.4 -16.6 Q 55.9 -16.4 53.9 -16.4 L 53.9 -16.4 Z M 54.5 -6.5 L 50.9 -6.5 L 50.9 -10.3 L 54.8 -10.3 Q 56 -10.3 57.2 -10.1 L 57.2 -10.1 Q 58.7 -9.8 58.7 -8.5 L 58.7 -8.5 Q 58.7 -7 57 -6.7 L 57 -6.7 Q 56.7 -6.5 56 -6.5 Q 55.3 -6.5 54.5 -6.5 L 54.5 -6.5 Z M 73.3 -0.2 L 84.1 -0.2 L 84.1 -9.6 L 94.5 -9.6 L 94.5 -15.8 L 84.1 -15.8 L 84.1 -19.5 L 95.9 -19.5 L 95.9 -26.1 L 73.3 -26.1 L 73.3 -0.2 Z" transform="translate(-1.8,26.4)"></path></g></g></g></g> <g  class="tp-slogan" fill="#0a0619" transform="translate(5,43.9)"><rect x="0" height="1" y="2.4" width="7.8"></rect> <rect height="1" y="2.4" width="7.8" x="121.8"></rect> <g transform="translate(10.8)"><g transform="scale(0.4)"><path d="M 1.4 0 L 4 0 L 4 -9 L 4.1 -9 L 7.8 -1.8 L 9.7 -1.8 L 13.7 -9 L 13.8 -9 L 13.8 0 L 16.5 0 L 16.5 -14 L 13.8 -14 L 8.9 -5.1 L 8.9 -5.1 L 4.1 -14 L 1.4 -14 Z M 26.4 -14 L 23 -14 L 18 0 L 20.9 0 L 24.6 -11.1 L 24.8 -11.1 L 28.8 0 L 31.9 0 Z M 42.6 -14 L 32.8 -14 L 32.8 -11.4 L 42.6 -11.4 Z M 42.1 -10 L 39.1 -10 L 32.4 -2.3 L 32.4 0 L 42.7 0 L 42.7 -2.6 L 35.7 -2.6 Z M 57.2 0 L 59.9 0 L 59.9 -4.9 L 63.1 -4.9 L 65.7 0 L 68.7 0 L 65.5 -5.4 C 67.2 -6.2 67.9 -8.1 67.9 -9.6 C 67.9 -12.4 66.2 -14 63 -14 L 44.3 -14 L 44.3 -11.6 L 62.7 -11.6 C 64.5 -11.6 65.4 -10.9 65.4 -9.5 C 65.4 -8 64.4 -7.2 62.7 -7.2 L 57.2 -7.2 Z M 54.7 -5.8 L 54.7 -8.2 L 44.3 -8.2 L 44.3 -5.8 Z M 44.3 0 L 54.7 0 L 54.7 -2.6 L 44.3 -2.6 Z M 76.2 0 L 82 0 C 86.3 0 87.5 -1.7 87.5 -3.9 C 87.5 -5.9 85.6 -7.1 83.3 -7.2 L 83.3 -7.3 C 85 -7.5 86.2 -8.5 86.2 -10.4 C 86.2 -12.4 85.3 -14 81.4 -14 L 76.2 -14 Z M 78.9 -8.2 L 78.9 -11.9 L 81.1 -11.9 C 82.9 -11.9 83.7 -11.3 83.7 -10.1 C 83.7 -8.7 82.5 -8.2 81 -8.2 Z M 78.9 -2.1 L 78.9 -6.1 L 81.3 -6.1 C 83.3 -6.1 84.6 -5.4 84.6 -4 C 84.6 -2.6 83.6 -2.1 81.3 -2.1 Z M 91.8 -4.2 L 91.8 -14 L 89.1 -14 L 89.1 -4.2 Z M 89.1 0 L 99.3 0 L 99.3 -2.6 L 89.1 -2.6 Z M 107.1 -14.2 L 107.1 -11.6 C 109.8 -11.6 111.8 -10.1 111.8 -7 C 111.8 -3.9 109.8 -2.3 107.1 -2.3 C 104.6 -2.3 102.6 -3.9 102.6 -7 C 102.6 -7 99.9 -7 99.9 -7 C 99.9 -2.4 103.1 0.2 107.1 0.2 C 111.3 0.2 114.5 -2.2 114.5 -7 C 114.5 -11.6 111.3 -14.2 107.1 -14.2 Z M 118.6 -7 C 118.6 -9.7 120.5 -11.8 123.3 -11.8 C 125.5 -11.8 126.8 -10.8 127.4 -9.2 L 130.2 -9.2 C 129.5 -12.7 127.1 -14.2 123.3 -14.2 C 118.8 -14.2 116 -11.4 116 -7 Z M 123.1 0 L 127.7 -3.3 L 127.7 0 L 130.3 0 C 130.3 -0.1 130.3 -7.4 130.3 -7.5 L 122.8 -7.5 L 122.8 -5.5 L 126.9 -5.5 L 119.2 0 Z M 138.6 0 L 141.4 0 L 141.4 -5.7 L 148.3 -5.7 L 148.3 -8.1 L 141.4 -8.1 L 141.4 -11.4 L 149 -11.4 L 149 -14 L 138.6 -14 Z M 150.6 0 L 153.3 0 L 153.3 -4.9 L 156.5 -4.9 L 159.1 0 L 162.1 0 L 158.9 -5.4 C 160.6 -6.2 161.3 -8.1 161.3 -9.6 C 161.3 -12.4 159.6 -14 156.4 -14 L 150.6 -14 L 150.6 -11.6 L 156.1 -11.6 C 157.9 -11.6 158.8 -10.9 158.8 -9.5 C 158.8 -8 157.8 -7.2 156.1 -7.2 L 150.6 -7.2 Z M 170.8 -14 L 167.4 -14 L 162.4 0 L 165.3 0 L 169 -11.1 L 169.2 -11.1 L 173.2 0 L 176.3 0 Z M 184.2 -1.8 L 186.1 -1.8 L 190.1 -9 L 190.2 -9 L 190.2 0 L 192.9 0 L 192.9 -14 L 190.2 -14 L 185.3 -5.1 L 185.3 -5.1 L 180.5 -14 L 177.8 -14 Z M 177.8 0 L 180.4 0 L 180.4 -5.5 L 177.8 -10.4 Z M 205.8 -11.4 L 205.8 -14 L 195.5 -14 L 195.5 -11.4 Z M 205.8 -5.8 L 205.8 -8.2 L 195.5 -8.2 L 195.5 -5.8 Z M 195.5 0 L 205.8 0 L 205.8 -2.6 L 195.5 -2.6 Z M 221.1 0 L 223.9 0 L 229 -14 L 225.9 -14 L 222.7 -3.6 L 222.6 -3.6 L 219.3 -14 L 216.6 -14 Z M 212.1 0 L 214.9 0 L 217.2 -7 L 216 -10.6 L 213.8 -3.6 L 213.7 -3.6 L 210.2 -14 L 207.1 -14 Z M 235.9 -14.2 L 235.9 -11.6 C 238.6 -11.6 240.6 -10.1 240.6 -7 C 240.6 -3.9 238.6 -2.3 235.9 -2.3 C 233.4 -2.3 231.4 -3.9 231.4 -7 C 231.4 -7 228.7 -7 228.7 -7 C 228.7 -2.4 231.9 0.2 235.9 0.2 C 240.1 0.2 243.3 -2.2 243.3 -7 C 243.3 -11.6 240.1 -14.2 235.9 -14.2 Z M 245.4 0 L 248.1 0 L 248.1 -4.9 L 251.2 -4.9 L 253.8 0 L 256.9 0 L 253.6 -5.4 C 255.3 -6.2 256.1 -8.1 256.1 -9.6 C 256.1 -12.4 254.3 -14 251.1 -14 L 245.4 -14 L 245.4 -11.6 L 250.8 -11.6 C 252.6 -11.6 253.5 -10.9 253.5 -9.5 C 253.5 -8 252.5 -7.2 250.9 -7.2 L 245.4 -7.2 Z M 261 -14 L 258.3 -14 L 258.3 0 L 261 0 Z M 263 -5.9 L 267.9 0 L 271.4 0 L 264.9 -7.8 L 271.1 -14 L 267.6 -14 L 263 -9.1 Z" transform="translate(-1.4,14.2)"></path></g></g></g></g></svg>
