<svg data-v-0dd9719b="" version="1.0" xmlns="http://www.w3.org/2000/svg" xmlns:xlink="http://www.w3.org/1999/xlink" width="100%" height="100%" viewBox="0 0 340.000000 250.000000"  preserveAspectRatio="xMidYMid meet" color-interpolation-filters="sRGB" style="margin: auto;"> <rect data-v-0dd9719b="" x="0" y="0" width="100%" height="100%" fill="#ffffff" fill-opacity="1" class="background"></rect> <g data-v-0dd9719b="" fill="#ff0844" class="basesvg" transform="translate(102.3946967124939,101.27500104904175)"><g fill-rule="" class="tp-name" transform="translate(0,0)"><g transform="scale(1.46)"><g><g><path d="M1.75-0.18L11.58-0.18Q11.58-13.51 11.45-16.98L11.45-16.98Q11.93-15.4 15.88-5.48L15.88-5.48 22.59-5.48Q24.3-10.13 25.23-12.55L25.23-12.55Q26.81-16.89 26.85-17.02L26.85-17.02Q26.67-11.06 26.67-0.18L26.67-0.18 36.46-0.18 36.46-26.1 22.46-26.1Q20.44-19.96 19.26-14.26L19.26-14.26Q19-15.49 18.1-18.75 17.2-22.02 15.84-26.1L15.84-26.1 1.75-26.1 1.75-0.18ZM39.97-26.41L39.97 0.09 54.31 0.09Q60.89 0.09 63.79-0.75L63.79-0.75Q66.64-1.45 68.22-3.25L68.22-3.25Q69.84-5 69.84-7.59L69.84-7.59Q69.84-13.07 62.6-13.78L62.6-13.78Q68.04-15.27 68.04-19.96L68.04-19.96Q68.04-22.9 65.54-24.44L65.54-24.44Q63.17-26.02 58.87-26.28L58.87-26.28 56.99-26.32Q54.71-26.41 53.7-26.41L53.7-26.41 39.97-26.41ZM53.87-16.41L50.93-16.41 50.93-19.92 53.87-19.92Q55.28-19.92 55.8-19.87L55.8-19.87Q57.56-19.61 57.56-18.21L57.56-18.21Q57.56-17.11 56.37-16.63L56.37-16.63Q55.85-16.41 53.87-16.41L53.87-16.41ZM54.49-6.45L50.93-6.45 50.93-10.27 54.75-10.27Q55.98-10.27 57.21-10.09L57.21-10.09Q58.7-9.78 58.7-8.47L58.7-8.47Q58.7-6.98 57.03-6.67L57.03-6.67Q56.68-6.54 56-6.49 55.32-6.45 54.49-6.45L54.49-6.45ZM73.35-0.18L84.1-0.18 84.1-9.61 94.45-9.61 94.45-15.84 84.1-15.84 84.1-19.52 95.86-19.52 95.86-26.15 73.35-26.15 73.35-0.18Z" transform="translate(-1.75, 26.40999984741211)"></path></g><g stroke="#333333" stroke-width="1" stroke-linecap="round" stroke-linejoin="round" paint-order="stroke" data-gra-ignore-stroke="true" fill-opacity="0" transform="translate(-1.5, -1.5)"><path d="M1.75-0.18L11.58-0.18Q11.58-13.51 11.45-16.98L11.45-16.98Q11.93-15.4 15.88-5.48L15.88-5.48 22.59-5.48Q24.3-10.13 25.23-12.55L25.23-12.55Q26.81-16.89 26.85-17.02L26.85-17.02Q26.67-11.06 26.67-0.18L26.67-0.18 36.46-0.18 36.46-26.1 22.46-26.1Q20.44-19.96 19.26-14.26L19.26-14.26Q19-15.49 18.1-18.75 17.2-22.02 15.84-26.1L15.84-26.1 1.75-26.1 1.75-0.18ZM39.97-26.41L39.97 0.09 54.31 0.09Q60.89 0.09 63.79-0.75L63.79-0.75Q66.64-1.45 68.22-3.25L68.22-3.25Q69.84-5 69.84-7.59L69.84-7.59Q69.84-13.07 62.6-13.78L62.6-13.78Q68.04-15.27 68.04-19.96L68.04-19.96Q68.04-22.9 65.54-24.44L65.54-24.44Q63.17-26.02 58.87-26.28L58.87-26.28 56.99-26.32Q54.71-26.41 53.7-26.41L53.7-26.41 39.97-26.41ZM53.87-16.41L50.93-16.41 50.93-19.92 53.87-19.92Q55.28-19.92 55.8-19.87L55.8-19.87Q57.56-19.61 57.56-18.21L57.56-18.21Q57.56-17.11 56.37-16.63L56.37-16.63Q55.85-16.41 53.87-16.41L53.87-16.41ZM54.49-6.45L50.93-6.45 50.93-10.27 54.75-10.27Q55.98-10.27 57.21-10.09L57.21-10.09Q58.7-9.78 58.7-8.47L58.7-8.47Q58.7-6.98 57.03-6.67L57.03-6.67Q56.68-6.54 56-6.49 55.32-6.45 54.49-6.45L54.49-6.45ZM73.35-0.18L84.1-0.18 84.1-9.61 94.45-9.61 94.45-15.84 84.1-15.84 84.1-19.52 95.86-19.52 95.86-26.15 73.35-26.15 73.35-0.18Z" transform="translate(-1.75, 26.40999984741211)"></path></g></g></g></g> <g data-gra="path-slogan" fill-rule="" class="tp-slogan" fill="#0a0619" transform="translate(5,43.880001068115234)"><rect x="0" height="1" y="2.379999876022339" width="7.787300109863281"></rect> <rect height="1" y="2.379999876022339" width="7.787300109863281" x="121.80330657958984"></rect> <g transform="translate(10.787300109863281,0)"><g transform="scale(0.4)"><path d="M1.36 0L3.98 0L3.98-8.96L4.08-8.96L7.84-1.82L9.70-1.82L13.72-8.96L13.82-8.96L13.82 0L16.52 0L16.52-14L13.78-14L8.94-5.06L8.86-5.06L4.06-14L1.36-14ZM26.42-14L23-14L17.98 0L20.90 0L24.62-11.10L24.82-11.10L28.80 0L31.92 0ZM42.62-14L32.82-14L32.82-11.38L42.62-11.38ZM42.08-10L39.08-10L32.42-2.34L32.42 0L42.72 0L42.72-2.64L35.72-2.64ZM57.24 0L59.94 0L59.94-4.94L63.08-4.94L65.70 0L68.74 0L65.48-5.40C67.18-6.24 67.94-8.08 67.94-9.58C67.94-12.40 66.18-14 63.02-14L44.32-14L44.32-11.56L62.72-11.56C64.52-11.56 65.40-10.90 65.40-9.52C65.40-8.04 64.36-7.18 62.74-7.18L57.24-7.18ZM54.68-5.76L54.68-8.24L44.32-8.24L44.32-5.76ZM44.32 0L54.68 0L54.68-2.64L44.32-2.64ZM76.20 0L81.96 0C86.26 0 87.46-1.68 87.46-3.90C87.46-5.94 85.56-7.08 83.28-7.18L83.28-7.28C85.02-7.48 86.22-8.54 86.22-10.42C86.22-12.38 85.32-14 81.42-14L76.20-14ZM78.90-8.18L78.90-11.88L81.12-11.88C82.90-11.88 83.66-11.34 83.66-10.12C83.66-8.68 82.54-8.18 81.02-8.18ZM78.90-2.14L78.90-6.14L81.28-6.14C83.26-6.14 84.60-5.44 84.60-4.04C84.60-2.64 83.58-2.14 81.32-2.14ZM91.84-4.18L91.84-14L89.12-14L89.12-4.18ZM89.12 0L99.30 0L99.30-2.64L89.12-2.64ZM107.14-14.20L107.14-11.64C109.78-11.64 111.78-10.12 111.78-7C111.78-3.88 109.78-2.34 107.14-2.34C104.58-2.34 102.60-3.88 102.60-7C102.60-7 99.88-7 99.88-7C99.88-2.38 103.10 0.20 107.14 0.20C111.28 0.20 114.48-2.18 114.48-7C114.48-11.60 111.28-14.20 107.14-14.20ZM118.64-7C118.64-9.72 120.52-11.82 123.32-11.82C125.46-11.82 126.84-10.82 127.36-9.22L130.22-9.22C129.54-12.72 127.12-14.20 123.30-14.20C118.84-14.20 116.02-11.40 116.02-7ZM123.10 0L127.74-3.34L127.74 0L130.26 0C130.26-0.10 130.26-7.36 130.26-7.46L122.82-7.46L122.82-5.50L126.86-5.50L119.22 0ZM138.64 0L141.38 0L141.38-5.68L148.26-5.68L148.26-8.10L141.38-8.10L141.38-11.38L148.96-11.38L148.96-14L138.64-14ZM150.64 0L153.34 0L153.34-4.94L156.48-4.94L159.10 0L162.14 0L158.88-5.40C160.58-6.24 161.34-8.08 161.34-9.58C161.34-12.40 159.58-14 156.42-14L150.64-14L150.64-11.64L156.12-11.64C157.92-11.64 158.80-10.90 158.80-9.52C158.80-8.04 157.76-7.18 156.14-7.18L150.64-7.18ZM170.80-14L167.38-14L162.36 0L165.28 0L169-11.10L169.20-11.10L173.18 0L176.30 0ZM184.24-1.82L186.10-1.82L190.12-8.96L190.22-8.96L190.22 0L192.92 0L192.92-14L190.18-14L185.34-5.06L185.26-5.06L180.46-14L177.76-14ZM177.76 0L180.38 0L180.38-5.50L177.76-10.42ZM205.82-11.38L205.82-14L195.46-14L195.46-11.38ZM205.82-5.76L205.82-8.24L195.46-8.24L195.46-5.76ZM195.46 0L205.82 0L205.82-2.64L195.46-2.64ZM221.06 0L223.88 0L229.00-14L225.94-14L222.72-3.64L222.58-3.64L219.32-14L216.60-14ZM212.10 0L214.94 0L217.22-7L215.98-10.62L213.80-3.64L213.66-3.64L210.18-14L207.12-14ZM235.92-14.20L235.92-11.64C238.56-11.64 240.56-10.12 240.56-7C240.56-3.88 238.56-2.34 235.92-2.34C233.36-2.34 231.38-3.88 231.38-7C231.38-7 228.66-7 228.66-7C228.66-2.38 231.88 0.20 235.92 0.20C240.06 0.20 243.26-2.18 243.26-7C243.26-11.60 240.06-14.20 235.92-14.20ZM245.36 0L248.06 0L248.06-4.94L251.20-4.94L253.82 0L256.86 0L253.60-5.40C255.30-6.24 256.06-8.08 256.06-9.58C256.06-12.40 254.30-14 251.14-14L245.36-14L245.36-11.64L250.84-11.64C252.64-11.64 253.52-10.90 253.52-9.52C253.52-8.04 252.48-7.18 250.86-7.18L245.36-7.18ZM261.02-14L258.32-14L258.32 0L261.02 0ZM262.96-5.86L267.86 0L271.40 0L264.86-7.76L271.10-14L267.56-14L262.98-9.10Z" transform="translate(-1.36, 14.2)"></path></g></g></g></g></svg>
